<!DOCTYPE svg PUBLIC "-//W3C//DTD SVG 1.1//EN" "http://www.w3.org/Graphics/SVG/1.1/DTD/svg11.dtd">
<!-- Uploaded to: SVG Repo, www.svgrepo.com, Transformed by: SVG Repo Mixer Tools -->
<svg width="800px" height="800px" viewBox="-10 -10 120.00 120.00" xmlns="http://www.w3.org/2000/svg" version="1.1" fill="#000000" transform="rotate(0)" stroke="#000000">
<g id="SVGRepo_bgCarrier" stroke-width="0" transform="translate(0,0), scale(1)">
<path transform="translate(-10, -10), scale(3.75)" d="M16,31.734731083049585C18.95939353508374,31.813074825445526,20.217410610516552,27.823957386681496,22.167121927419362,25.596229032907374C23.57575107984385,23.986737886395623,24.77843061708361,22.3507496145839,25.838642634013425,20.49315753909546C27.007137978443932,18.44584279695088,29.441546514259695,16.408789428961168,28.685071947937303,14.176161996122083C27.888885572849144,11.826330789877716,23.775826896058675,12.51295731888434,22.428779740567776,10.429430644565109C20.68997992394571,7.739965925779369,22.73874319738463,3.3638274983521312,20.33006157898382,1.253164536850166C18.08697434438858,-0.7123925169796983,14.15066085909499,-0.5812920413617979,11.570540951033088,0.9146478417508579C8.998240239371455,2.4060541961261457,9.212286392995443,6.210739003460634,7.539589542940803,8.669012607619294C6.1399307625954,10.726016681274128,2.8973033889461983,11.60357274057794,2.6153734752623325,14.075581232513349C2.3326009732925854,16.554977679031825,4.813929292545742,18.39885188342009,6.192690478424661,20.478848186107292C7.348403719888535,22.22235481643001,8.665076657744015,23.698068776488387,10.039211458519155,25.275168017428182C12.003701767739393,27.529820307550775,13.010616058001236,31.655593407475834,16,31.734731083049585" fill="#46579b" strokewidth="0"/>
</g>
<g id="SVGRepo_tracerCarrier" stroke-linecap="round" stroke-linejoin="round" stroke="#CCCCCC" stroke-width="0.8"/>
<g id="SVGRepo_iconCarrier"> <path style="fill:#EDCB21;stroke:#333333;stroke-width:3" d="M 46,3 96,3 57,40 70,40 35,70 43,70 4,97 24,67 16,67 39,34 26,34 z"/> </g>
</svg>